<svg xmlns="http://www.w3.org/2000/svg" viewBox="0 0 670.66 170.08" width="670.66" height="170.08"><defs><style>.cls-1,.cls-4{fill:#008c4c;}.cls-1,.cls-2,.cls-5{fill-rule:evenodd;}.cls-2,.cls-3{fill:#4d4d4d;}.cls-5{fill:#fff;}</style></defs><g id="Camada_2" data-name="Camada 2"><g id="HORIZONTAL"><g id="Padrão"><g id="ZENFISIO_-_HORIZONTAL" data-name="ZENFISIO - HORIZONTAL"><path id="NOVO_Z" data-name="NOVO Z" class="cls-1" d="M274.22,134H205.5V119.3l48.43-61.51H205.5V41h68.72V57.78l-47.08,59.81h47.08Z"/><path class="cls-1" d="M323,93.82c-.12-7.39-3.07-13.61-11.63-13.61S299.54,86,298.84,93.82Zm-24.5,10.79c0,7.93,4,15.69,12.73,15.69,7.32,0,9.41-2.93,11.07-6.77h17.59c-2.25,7.76-9.18,20.52-29.12,20.52-20.9,0-30-15.63-30-32.28,0-19.9,10.21-34.12,30.59-34.12,21.79,0,29.2,15.77,29.2,31.61a39.07,39.07,0,0,1-.23,5.35Z"/><path class="cls-1" d="M349.71,85.45c0-1.46,0-7,0-8.42,0-1.78,0-7.59,0-9.38h17.16v9.71a22.73,22.73,0,0,1,3.28-3.71,24.51,24.51,0,0,1,15.86-6c12.84,0,21.19,8.78,21.19,25V134H389.46V94.68c0-7.27-2.39-12.54-10.21-12.54-7.52,0-11.83,4.23-11.83,15.66V134H349.71Z"/><path class="cls-2" d="M419.71,41h59V57.9H437.52V80.59h33.83V97H437.52v37H419.67C419.68,103,419.69,72,419.71,41Z"/><g id="NOVOS_I" data-name="NOVOS I"><path id="fi" class="cls-2" d="M488.17,67.67h17.64V134H488.17V67.67Z"/><path id="sio" class="cls-2" d="M580.76,67.67H598.4V134H580.76V67.67Z"/><g id="redondo"><circle id="pingo_fi_" data-name="pingo &quot;fi&quot;" class="cls-3" cx="496.99" cy="51.07" r="10.01"/><circle id="pingo_sio_" data-name="pingo &quot;sio&quot;" class="cls-3" cx="589.58" cy="51.07" r="10.01"/></g></g><path class="cls-2" d="M532.6,113.48c1.33,5,5.44,7.89,12,7.89s8.82-2.33,8.82-6.17c0-4.07-2.72-5.67-11.78-7.9-20.61-5.1-24-11.5-24-20.45,0-9.32,6.58-19.22,25.66-19.22S569,78.14,569.53,86.74H552.87c-.56-2.35-2.12-6.78-10.36-6.78-5.79,0-7.67,2.57-7.67,5.43,0,3.15,2,4.68,12.24,7.08,21.11,4.92,24.1,12.18,24.1,21.48,0,10.51-8,20.08-27.26,20.08s-27.14-9.3-28.53-20.55Z"/><path class="cls-2" d="M625.73,100.85c0,12.22,5.26,19.45,13.72,19.45s13.38-7.24,13.38-19.34c0-13.28-4.87-19.56-13.63-19.56-8.14,0-13.47,6-13.47,19.45Zm44.93-.12c0,19.2-11.49,33.32-31.59,33.32-19.68,0-31.17-14-31.17-33,0-19.58,11.85-33.42,32-33.42C658.57,67.65,670.66,80.84,670.66,100.73Z"/></g><g id="SÍMBOLO_-_HORIZONTAL" data-name="SÍMBOLO - HORIZONTAL"><circle id="_Elipse_JU_" data-name="&lt;Elipse JU&gt;" class="cls-4" cx="85.04" cy="85.04" r="85.04"/><g id="ZF"><polygon id="ZF-2" data-name="ZF" class="cls-5" points="84.79 134.63 29.24 134.63 29.24 119.76 78.33 57.42 29.24 57.42 29.24 40.44 98.89 40.44 98.89 57.41 51.17 118.03 85.37 118 85.37 80.46 102.44 58.78 102.44 80.46 136.74 80.46 136.74 97.03 102.44 97.03 102.44 134.6 84.79 134.63"/><path id="Parte_F" data-name="Parte F" class="cls-5" d="M102.44,57.42v-17h41.72v17Z"/></g></g></g></g></g></svg>